<?xml version="1.0" encoding="UTF-8"?>
<svg width="223px" height="82px" viewBox="0 0 223 82" version="1.1" xmlns="http://www.w3.org/2000/svg" xmlns:xlink="http://www.w3.org/1999/xlink">
    <!-- Generator: Sketch 48.2 (47327) - http://www.bohemiancoding.com/sketch -->
    <title>GetItOniTunes</title>
    <desc>Created with Sketch.</desc>
    <defs></defs>
    <g id="Inicio" stroke="none" stroke-width="1" fill="none" fill-rule="evenodd" transform="translate(-98.000000, -482.000000)">
        <g id="GetItOniTunes-Copy" transform="translate(99.000000, 483.000000)">
            <g id="Get_it_on_iTunes_Badge_US_1114">
                <path d="M207.681736,0 L13.3102273,0 C12.8019273,0 12.2936273,0 11.7853273,0.002 C11.3553818,0.004 10.9354818,0.01 10.5075455,0.02 C9.57331818,0.052 8.63105455,0.1 7.70687273,0.27 C6.76862727,0.434 5.89869091,0.71 5.05487273,1.142 C4.21507273,1.566 3.45563636,2.114 2.78259091,2.772 C2.1216,3.442 1.57311818,4.196 1.14518182,5.034 C0.713227273,5.872 0.435972727,6.74 0.271227273,7.674 C0.0964363636,8.594 0.0502272727,9.532 0.0180818182,10.462 C0.00803636364,10.888 0.00401818182,11.304 0.00200909091,11.732 C0,12.238 0,12.744 0,13.25 L0,66.756 C0,67.252 0,67.768 0.00200909091,68.268 C0.00401818182,68.69 0.00803636364,69.12 0.0180818182,69.546 C0.0502272727,70.488 0.0984454545,71.414 0.271227273,72.324 C0.435972727,73.27 0.713227273,74.136 1.14518182,74.984 C1.57110909,75.8 2.11959091,76.582 2.78259091,77.226 C3.45563636,77.894 4.21306364,78.452 5.05487273,78.874 C5.89668182,79.308 6.76862727,79.562 7.70687273,79.75 C8.63105455,79.91 9.57331818,79.96 10.5075455,79.98 C10.9354818,79.988 11.3553818,79.992 11.7853273,79.996 C12.2936273,80 12.8019273,80 13.3102273,80 L207.683745,80 C208.190036,80 208.700345,80 209.210655,79.996 C209.634573,79.992 210.066527,79.988 210.498482,79.98 C211.428691,79.96 212.370955,79.91 213.297145,79.75 C214.223336,79.562 215.095282,79.308 215.949145,78.874 C216.792964,78.452 217.550391,77.894 218.213391,77.226 C218.872373,76.582 219.432909,75.8 219.856827,74.984 C220.2928,74.136 220.568045,73.27 220.732791,72.324 C220.897536,71.414 220.9558,70.488 220.979909,69.546 C220.995982,69.12 221,68.69 221,68.268 C221,67.77 221,67.254 221,66.758 L221,13.25 C221,12.742 221,12.238 220.995982,11.73 C220.995982,11.304 220.991964,10.888 220.975891,10.46 C220.951782,9.53 220.893518,8.592 220.728773,7.672 C220.564027,6.738 220.288782,5.87 219.852809,5.032 C219.428891,4.194 218.868355,3.44 218.209373,2.77 C217.546373,2.112 216.788945,1.564 215.945127,1.14 C215.089255,0.71 214.219318,0.432 213.293127,0.268 C212.366936,0.096 211.424673,0.048 210.494464,0.018 C210.062509,0.008 209.630555,0.004 209.206636,0.002 C208.698336,0 208.188027,0 207.681736,0 L207.681736,0 Z" id="Shape" stroke="#AA6DA3" fill-rule="nonzero"></path>
                <path d="M207.681736,1.97 L209.192573,1.972 C209.608455,1.974 210.028355,1.978 210.4362,1.998 C211.197645,2.016 212.079636,2.052 212.939527,2.214 C213.733118,2.356 214.400136,2.574 215.051082,2.898 C215.693991,3.23 216.286673,3.658 216.809036,4.174 C217.327382,4.69 217.759336,5.278 218.092845,5.926 C218.418318,6.57 218.637309,7.234 218.779955,8.026 C218.932645,8.872 218.972827,9.756 218.990909,10.506 C219.002964,10.92 219.006982,11.336 219.006982,11.756 C219.011,12.256 219.011,12.748 219.011,13.252 L219.011,66.758 C219.011,67.25 219.011,67.762 219.006982,68.258 C219.006982,68.672 219.002964,69.09 218.990909,69.5 C218.970818,70.254 218.932645,71.136 218.779955,71.988 C218.639318,72.762 218.418318,73.438 218.092845,74.094 C217.759336,74.73 217.327382,75.32 216.809036,75.844 C216.286673,76.352 215.693991,76.778 215.047064,77.098 C214.400136,77.446 213.733118,77.652 212.943545,77.798 C212.0716,77.946 211.149427,78.006 210.444236,78.02 C210.032373,78.028 209.616491,78.032 209.192573,78.036 C208.6903,78.04 208.184009,78.04 207.681736,78.04 L13.3102273,78.04 L13.2961636,78.04 C12.7959,78.04 12.2976455,78.04 11.7933636,78.036 C11.3855182,78.032 10.9656182,78.028 10.5537545,78.02 C9.85258182,78.004 8.92639091,77.946 8.06047273,77.798 C7.26688182,77.654 6.59986364,77.446 5.94891818,77.098 C5.29998182,76.778 4.70930909,76.352 4.19096364,75.844 C3.67462727,75.32 3.24468182,74.73 2.90916364,74.094 C2.5857,73.438 2.3647,72.762 2.22406364,71.984 C2.05931818,71.132 2.02516364,70.254 2.00708182,69.5 C1.98699091,69.086 1.98297273,68.668 1.98096364,68.258 L1.98096364,67.058 L1.98096364,66.758 L1.98096364,13.25 L1.98096364,12.95 L1.98096364,11.754 C1.98297273,11.338 1.98699091,10.922 2.00708182,10.506 C2.02516364,9.758 2.05931818,8.878 2.22406364,8.024 C2.3647,7.236 2.5857,6.57 2.90916364,5.924 C3.24468182,5.278 3.67663636,4.69 4.19297273,4.174 C4.70930909,3.66 5.29998182,3.23 5.95092727,2.896 C6.59986364,2.574 7.26688182,2.356 8.06047273,2.214 C8.91634545,2.052 9.80034545,2.016 10.5537545,2 C10.9696364,1.98 11.3875273,1.976 11.8054182,1.974 L13.3102273,1.972 L207.681736,1.972" id="Shape" fill-rule="nonzero"></path>
                <g id="apple_symbol-copy" transform="translate(25.000000, 12.000000)" fill="#AA6DA3">
                    <g id="Group" transform="translate(0.109091, 0.000000)">
                        <path d="M35.4208,27.568 C35.3625364,21.122 40.7227909,17.986 40.9679,17.84 C37.9321636,13.434 33.2268727,12.832 31.5733909,12.784 C27.6215091,12.37 23.7881636,15.138 21.7750545,15.138 C19.7217636,15.138 16.6217364,12.824 13.2806182,12.892 C8.98116364,12.958 4.95896364,15.436 2.75298182,19.284 C-1.79961818,27.13 1.59574545,38.66 5.95748182,45 C8.13935455,48.106 10.6888909,51.574 14.0259909,51.454 C17.2907636,51.318 18.5102818,49.38 22.4501091,49.38 C26.3537727,49.38 27.4989545,51.454 30.9023545,51.376 C34.4062091,51.318 36.6121909,48.254 38.7177182,45.122 C41.2391273,41.56 42.2517091,38.056 42.2918909,37.876 C42.2095182,37.848 35.4871,35.292 35.4208,27.568 Z" id="Shape" fill-rule="nonzero"></path>
                        <path d="M28.9917091,8.612 C30.7476545,6.426 31.9490909,3.452 31.6155818,0.434 C29.0740818,0.546 25.8957,2.184 24.0654182,4.322 C22.4460909,6.206 20.9995455,9.294 21.3732364,12.198 C24.2281545,12.41 27.1594182,10.764 28.9917091,8.612 Z" id="Shape" fill-rule="nonzero"></path>
                    </g>
                </g>
                <g id="Group" transform="translate(88.400000, 13.000000)" fill="#AA6DA3" fill-rule="nonzero">
                    <path d="M11.0078091,13.184 C9.78427273,13.644 8.49242727,13.874 7.13227273,13.874 C5.11112727,13.874 3.53198182,13.328 2.39483636,12.234 C1.22152727,11.104 0.634872727,9.55 0.634872727,7.574 C0.634872727,5.612 1.26170909,4.032 2.51739091,2.84 C3.77307273,1.646 5.42253636,1.05 7.4698,1.05 C8.77972727,1.05 9.8345,1.242 10.6341182,1.628 L10.1840818,3.268 C9.40857273,2.92 8.49242727,2.746 7.43162727,2.746 C6.02124545,2.746 4.89615455,3.15 4.06037273,3.958 C3.19847273,4.804 2.76852727,5.972 2.76852727,7.462 C2.76852727,8.952 3.18039091,10.128 4.00411818,10.984 C4.78967273,11.804 5.86453636,12.214 7.22469091,12.214 C8.07252727,12.214 8.6853,12.128 9.05899091,11.954 L9.05899091,8.542 L6.75657273,8.542 L6.75657273,6.958 L11.0058,6.958 L11.0058,13.184 L11.0078091,13.184 Z" id="Shape"></path>
                    <path d="M21.5515182,8.786 C21.5515182,9.146 21.5254,9.452 21.4771818,9.7 L15.4097273,9.7 C15.4358455,10.594 15.7291727,11.278 16.2897091,11.75 C16.8020273,12.172 17.4630182,12.384 18.2746909,12.384 C19.1727545,12.384 19.9904545,12.24 20.7277909,11.956 L21.0472364,13.354 C20.1853364,13.728 19.1667273,13.914 17.9934182,13.914 C16.5830364,13.914 15.4760273,13.5 14.6703818,12.674 C13.8667455,11.848 13.4629182,10.74 13.4629182,9.346 C13.4629182,7.98 13.8386182,6.842 14.586,5.934 C15.3735636,4.966 16.4323545,4.48 17.7684,4.48 C19.0783273,4.48 20.0708182,4.964 20.7458727,5.934 C21.2823,6.706 21.5515182,7.656 21.5515182,8.786 Z M19.6227909,8.264 C19.6348455,7.668 19.5042545,7.152 19.2290091,6.718 C18.8794273,6.158 18.343,5.88 17.6197273,5.88 C16.9567273,5.88 16.4203,6.154 16.0084364,6.7 C15.6709091,7.136 15.4720091,7.658 15.4097273,8.266 L19.6227909,8.266 L19.6227909,8.264 Z" id="Shape"></path>
                    <path d="M28.7782182,6.196 L26.5501364,6.196 L26.5501364,10.594 C26.5501364,11.712 26.9439182,12.272 27.7314818,12.272 C28.0931182,12.272 28.3924727,12.24 28.6295455,12.18 L28.6837909,13.708 C28.2859909,13.858 27.7616182,13.932 27.1126818,13.932 C26.3150727,13.932 25.6902455,13.69 25.2402091,13.204 C24.7901727,12.72 24.5671636,11.906 24.5671636,10.762 L24.5671636,6.196 L23.2371455,6.196 L23.2371455,4.686 L24.5671636,4.686 L24.5671636,3.026 L26.5501364,2.43 L26.5501364,4.686 L28.7782182,4.686 L28.7782182,6.196 L28.7782182,6.196 Z" id="Shape"></path>
                    <path d="M38.7031273,1.982 C38.7031273,2.342 38.5825818,2.634 38.3455091,2.858 C38.1104455,3.082 37.8030545,3.194 37.4273545,3.194 C37.0918364,3.194 36.8065455,3.078 36.5755,2.848 C36.3444545,2.618 36.2299364,2.33 36.2299364,1.982 C36.2299364,1.634 36.3484727,1.348 36.5875545,1.124 C36.8226182,0.9 37.1179545,0.788 37.4675364,0.788 C37.8171182,0.788 38.1104455,0.9 38.3475182,1.124 C38.5825818,1.348 38.7031273,1.634 38.7031273,1.982 Z M38.4761,13.744 L36.4529455,13.744 L36.4529455,4.686 L38.4761,4.686 L38.4761,13.744 Z" id="Shape"></path>
                    <path d="M46.3577636,6.196 L44.1316909,6.196 L44.1316909,10.594 C44.1316909,11.712 44.5254727,12.272 45.3110273,12.272 C45.6726636,12.272 45.9740273,12.24 46.2090909,12.18 L46.2633364,13.708 C45.8675455,13.858 45.3411636,13.932 44.6942364,13.932 C43.8946182,13.932 43.2697909,13.69 42.8197545,13.204 C42.3697182,12.72 42.1467091,11.906 42.1467091,10.762 L42.1467091,6.196 L40.8166909,6.196 L40.8166909,4.686 L42.1467091,4.686 L42.1467091,3.026 L44.1296818,2.43 L44.1296818,4.686 L46.3557545,4.686 L46.3557545,6.196 L46.3577636,6.196 Z" id="Shape"></path>
                    <path d="M62.3481182,9.14 C62.3481182,10.532 61.9503182,11.676 61.1507,12.57 C60.3129091,13.49 59.2018818,13.95 57.8176182,13.95 C56.4815727,13.95 55.4187636,13.508 54.6251727,12.626 C53.8295727,11.744 53.4357909,10.63 53.4357909,9.29 C53.4357909,7.886 53.8436364,6.736 54.6613364,5.842 C55.4770273,4.948 56.5800182,4.5 57.9662909,4.5 C59.3023364,4.5 60.3751909,4.942 61.1888727,5.824 C61.9623727,6.68 62.3481182,7.786 62.3481182,9.14 Z M60.2506273,9.206 C60.2506273,8.372 60.0698091,7.656 59.7081727,7.056 C59.2822455,6.334 58.6775091,5.972 57.8919545,5.972 C57.0802818,5.972 56.4614818,6.334 56.0375636,7.056 C55.6759273,7.654 55.4931,8.384 55.4931,9.242 C55.4931,10.078 55.6759273,10.794 56.0375636,11.392 C56.4755455,12.114 57.0863091,12.476 57.8718636,12.476 C58.6473727,12.476 59.2521091,12.108 59.6880818,11.374 C60.0637818,10.764 60.2506273,10.04 60.2506273,9.206 Z" id="Shape"></path>
                    <path d="M72.9279909,13.744 L70.9068455,13.744 L70.9068455,8.556 C70.9068455,6.956 70.2940727,6.156 69.0705364,6.156 C68.4718273,6.156 67.9856273,6.376 67.6099273,6.818 C67.2342273,7.258 67.0493909,7.776 67.0493909,8.37 L67.0493909,13.744 L65.0262364,13.744 L65.0262364,7.276 C65.0262364,6.48 65.0001182,5.616 64.9519,4.686 L66.7299455,4.686 L66.8243727,6.102 L66.8806273,6.102 C67.1177,5.662 67.4672818,5.298 67.9273636,5.008 C68.4758455,4.67 69.0886182,4.5 69.7636727,4.5 C70.6115091,4.5 71.3167,4.774 71.8792455,5.32 C72.5784091,5.99 72.9259818,6.99 72.9259818,8.32 L72.9259818,13.744 L72.9279909,13.744 Z" id="Shape"></path>
                </g>
                <g id="Group" transform="translate(88.400000, 35.000000)" fill="#AA6DA3" fill-rule="nonzero">
                    <path d="M6.11969091,3.08 C6.11969091,3.844 5.86855455,4.462 5.36628182,4.936 C4.86400909,5.41 4.21507273,5.646 3.42148182,5.646 C2.70825455,5.646 2.10552727,5.402 1.61530909,4.916 C1.12509091,4.43 0.881990909,3.818 0.881990909,3.08 C0.881990909,2.344 1.13312727,1.738 1.6354,1.264 C2.13767273,0.79 2.75848182,0.554 3.49983636,0.554 C4.23918182,0.554 4.862,0.79 5.36427273,1.264 C5.86855455,1.736 6.11969091,2.342 6.11969091,3.08 Z M5.64353636,28.004 L1.35814545,28.004 L1.35814545,8.806 L5.64353636,8.806 L5.64353636,28.004 Z" id="Shape"></path>
                    <polygon id="Shape" points="28.6958455 4.976 21.0392 4.976 21.0392 28.004 16.7538091 28.004 16.7538091 4.976 9.13533636 4.976 9.13533636 1.38 28.6958455 1.38"></polygon>
                    <path d="M46.5526455,28.004 L42.7835909,28.004 L42.5465182,25.082 L42.4661545,25.082 C41.1160455,27.32 39.0788273,28.438 36.3565091,28.438 C34.4518909,28.438 32.9310091,27.846 31.7938636,26.66 C30.4437545,25.212 29.7687,23.028 29.7687,20.104 L29.7687,8.808 L34.0561,8.808 L34.0561,19.394 C34.0561,23.082 35.3258455,24.924 37.8653364,24.924 C39.7699545,24.924 41.0919364,24.002 41.8353,22.16 C42.0201364,21.686 42.1125545,21.146 42.1125545,20.54 L42.1125545,8.808 L46.3979455,8.808 L46.3979455,22.474 C46.3939273,24.292 46.4461636,26.134 46.5526455,28.004 Z" id="Shape"></path>
                    <path d="M69.0926364,28.004 L64.8072455,28.004 L64.8072455,17.012 C64.8072455,13.622 63.5093727,11.928 60.9176455,11.928 C59.6458909,11.928 58.6152273,12.394 57.8216364,13.326 C57.0280455,14.258 56.6302455,15.356 56.6302455,16.618 L56.6302455,28.004 L52.3448545,28.004 L52.3448545,14.296 C52.3448545,12.612 52.2926182,10.78 52.1861364,8.806 L55.9572,8.806 L56.1561,11.808 L56.2746364,11.808 C56.7769091,10.874 57.5182636,10.1 58.4966909,9.492 C59.6599545,8.772 60.9578273,8.412 62.3862909,8.412 C64.1864364,8.412 65.6791909,8.992 66.8685727,10.15 C68.3492727,11.572 69.0906273,13.692 69.0906273,16.51 L69.0906273,28.004 L69.0926364,28.004 Z" id="Shape"></path>
                    <path d="M90.9535545,17.496 C90.9535545,18.262 90.9013182,18.906 90.7948364,19.434 L77.9386636,19.434 C77.9909,21.328 78.6137182,22.778 79.8051091,23.778 C80.8900182,24.672 82.2903545,25.122 84.0121455,25.122 C85.9147545,25.122 87.6486,24.82 89.2096636,24.212 L89.8847182,27.176 C88.0584545,27.966 85.9027,28.36 83.4154455,28.36 C80.4279273,28.36 78.0793,27.484 76.3735818,25.734 C74.6658545,23.982 73.814,21.634 73.814,18.684 C73.814,15.788 74.6096,13.378 76.1967818,11.456 C77.8623182,9.402 80.1104909,8.374 82.9413,8.374 C85.7178636,8.374 87.8213818,9.4 89.2498455,11.456 C90.3849818,13.086 90.9535545,15.102 90.9535545,17.496 Z M86.8670636,16.39 C86.8931818,15.126 86.6139182,14.034 86.0332909,13.112 C85.2919364,11.926 84.1547909,11.334 82.6218545,11.334 C81.2195091,11.334 80.0803545,11.912 79.2104182,13.072 C78.4951818,13.994 78.0732727,15.1 77.9386636,16.388 L86.8670636,16.388 L86.8670636,16.39 Z" id="Shape"></path>
                    <path d="M107.502436,22.488 C107.502436,24.274 106.841445,25.706 105.519464,26.782 C104.195473,27.858 102.371218,28.398 100.042682,28.398 C97.8447364,28.398 95.9823091,27.964 94.4473636,27.096 L95.3594909,23.936 C96.8401909,24.832 98.4153182,25.278 100.082864,25.278 C102.2788,25.278 103.375764,24.478 103.375764,22.87 C103.375764,22.16 103.138691,21.574 102.662536,21.112 C102.188391,20.652 101.340555,20.196 100.123045,19.748 C96.6834818,18.484 94.9657091,16.64 94.9657091,14.218 C94.9657091,12.558 95.6005818,11.176 96.8703273,10.07 C98.1400727,8.964 99.8196727,8.412 101.909127,8.412 C103.813745,8.412 105.441109,8.798 106.791218,9.572 L105.879091,12.638 C104.635464,11.902 103.325536,11.53 101.949309,11.53 C101.051245,11.53 100.348064,11.74 99.8478,12.162 C99.3435182,12.58 99.0923818,13.12 99.0923818,13.776 C99.0923818,14.434 99.3575818,14.974 99.8879818,15.394 C100.338018,15.788 101.209964,16.222 102.507836,16.694 C105.834891,17.958 107.502436,19.886 107.502436,22.488 Z" id="Shape"></path>
                </g>
            </g>
        </g>
    </g>
</svg>